<?xml version="1.0" encoding="UTF-8" standalone="no"?>
<!DOCTYPE svg PUBLIC "-//W3C//DTD SVG 1.1//EN"
 "http://www.w3.org/Graphics/SVG/1.1/DTD/svg11.dtd">
<!-- Generated by graphviz version 2.38.0 (20140413.2041)
 -->
<!-- Title: %3 Pages: 1 -->
<svg width="1196pt" height="1317pt"
 viewBox="0.00 0.00 1195.90 1317.45" xmlns="http://www.w3.org/2000/svg" xmlns:xlink="http://www.w3.org/1999/xlink">
<g id="graph0" class="graph" transform="scale(1 1) rotate(0) translate(578.156 657.934)">
<title>%3</title>
<polygon fill="white" stroke="none" points="-578.156,659.513 -578.156,-657.934 617.743,-657.934 617.743,659.513 -578.156,659.513"/>
<!-- 214 -->
<g id="node1" class="node"><title>214</title>
<ellipse fill="none" stroke="black" cx="-358.943" cy="-35.2899" rx="27" ry="18"/>
<text text-anchor="middle" x="-358.943" y="-31.0899" font-family="Times,serif" font-size="14.00">214</text>
</g>
<!-- 510 -->
<g id="node2" class="node"><title>510</title>
<ellipse fill="none" stroke="black" cx="-398.089" cy="47.1752" rx="27" ry="18"/>
<text text-anchor="middle" x="-398.089" y="51.3752" font-family="Times,serif" font-size="14.00">510</text>
</g>
<!-- 214&#45;&#45;510 -->
<g id="edge1" class="edge"><title>214&#45;&#45;510</title>
<path fill="none" stroke="black" d="M-367.245,-17.8012C-373.933,-3.712 -383.285,15.9879 -389.934,29.9945"/>
</g>
<!-- 478 -->
<g id="node3" class="node"><title>478</title>
<ellipse fill="none" stroke="black" cx="-343.098" cy="-122.38" rx="27" ry="18"/>
<text text-anchor="middle" x="-343.098" y="-118.18" font-family="Times,serif" font-size="14.00">478</text>
</g>
<!-- 214&#45;&#45;478 -->
<g id="edge2" class="edge"><title>214&#45;&#45;478</title>
<path fill="none" stroke="black" d="M-355.66,-53.335C-352.94,-68.2819 -349.095,-89.4176 -346.377,-104.358"/>
</g>
<!-- 479 -->
<g id="node4" class="node"><title>479</title>
<ellipse fill="none" stroke="black" cx="-348.544" cy="39.9609" rx="27" ry="18"/>
<text text-anchor="middle" x="-348.544" y="44.1609" font-family="Times,serif" font-size="14.00">479</text>
</g>
<!-- 214&#45;&#45;479 -->
<g id="edge3" class="edge"><title>214&#45;&#45;479</title>
<path fill="none" stroke="black" d="M-356.426,-17.0738C-354.791,-5.24245 -352.669,10.1148 -351.038,21.9126"/>
</g>
<!-- 210 -->
<g id="node5" class="node"><title>210</title>
<ellipse fill="none" stroke="black" cx="-296.545" cy="-200.428" rx="27" ry="18"/>
<text text-anchor="middle" x="-296.545" y="-196.228" font-family="Times,serif" font-size="14.00">210</text>
</g>
<!-- 210&#45;&#45;478 -->
<g id="edge5" class="edge"><title>210&#45;&#45;478</title>
<path fill="none" stroke="black" d="M-306.646,-183.493C-314.455,-170.402 -325.213,-152.365 -333.016,-139.282"/>
</g>
<!-- 222 -->
<g id="node6" class="node"><title>222</title>
<ellipse fill="none" stroke="black" cx="-266.761" cy="-287.218" rx="27" ry="18"/>
<text text-anchor="middle" x="-266.761" y="-283.018" font-family="Times,serif" font-size="14.00">222</text>
</g>
<!-- 210&#45;&#45;222 -->
<g id="edge4" class="edge"><title>210&#45;&#45;222</title>
<path fill="none" stroke="black" d="M-290.518,-217.991C-285.384,-232.95 -278.041,-254.347 -272.881,-269.383"/>
</g>
<!-- 422 -->
<g id="node7" class="node"><title>422</title>
<ellipse fill="none" stroke="black" cx="-376.549" cy="139.08" rx="27" ry="18"/>
<text text-anchor="middle" x="-376.549" y="143.28" font-family="Times,serif" font-size="14.00">422</text>
</g>
<!-- 422&#45;&#45;510 -->
<g id="edge6" class="edge"><title>422&#45;&#45;510</title>
<path fill="none" stroke="black" d="M-380.805,120.923C-384.606,104.706 -390.14,81.0913 -393.916,64.9822"/>
</g>
<!-- 447 -->
<g id="node8" class="node"><title>447</title>
<ellipse fill="none" stroke="black" cx="-334.994" cy="212.047" rx="27" ry="18"/>
<text text-anchor="middle" x="-334.994" y="216.247" font-family="Times,serif" font-size="14.00">447</text>
</g>
<!-- 422&#45;&#45;447 -->
<g id="edge7" class="edge"><title>422&#45;&#45;447</title>
<path fill="none" stroke="black" d="M-366.911,156.003C-360.198,167.791 -351.282,183.447 -344.58,195.215"/>
</g>
<!-- 163 -->
<g id="node9" class="node"><title>163</title>
<ellipse fill="none" stroke="black" cx="10.3539" cy="-45.5957" rx="27" ry="18"/>
<text text-anchor="middle" x="10.3539" y="-41.3957" font-family="Times,serif" font-size="14.00">163</text>
</g>
<!-- 251 -->
<g id="node10" class="node"><title>251</title>
<ellipse fill="none" stroke="black" cx="54.2492" cy="-103.015" rx="27" ry="18"/>
<text text-anchor="middle" x="54.2492" y="-98.8149" font-family="Times,serif" font-size="14.00">251</text>
</g>
<!-- 163&#45;&#45;251 -->
<g id="edge8" class="edge"><title>163&#45;&#45;251</title>
<path fill="none" stroke="black" d="M22.8151,-61.8962C28.7969,-69.7209 35.9428,-79.0684 41.9087,-86.8724"/>
</g>
<!-- 431 -->
<g id="node11" class="node"><title>431</title>
<ellipse fill="none" stroke="black" cx="-13.6031" cy="22.6106" rx="27" ry="18"/>
<text text-anchor="middle" x="-13.6031" y="26.8106" font-family="Times,serif" font-size="14.00">431</text>
</g>
<!-- 163&#45;&#45;431 -->
<g id="edge9" class="edge"><title>163&#45;&#45;431</title>
<path fill="none" stroke="black" d="M4.18441,-28.0309C0.635256,-17.9264 -3.81162,-5.266 -7.37121,4.86824"/>
</g>
<!-- 113 -->
<g id="node12" class="node"><title>113</title>
<ellipse fill="none" stroke="black" cx="46.7313" cy="371.527" rx="27" ry="18"/>
<text text-anchor="middle" x="46.7313" y="375.727" font-family="Times,serif" font-size="14.00">113</text>
</g>
<!-- 377 -->
<g id="node13" class="node"><title>377</title>
<ellipse fill="none" stroke="black" cx="138.22" cy="384.46" rx="27" ry="18"/>
<text text-anchor="middle" x="138.22" y="388.66" font-family="Times,serif" font-size="14.00">377</text>
</g>
<!-- 113&#45;&#45;377 -->
<g id="edge10" class="edge"><title>113&#45;&#45;377</title>
<path fill="none" stroke="black" d="M73.1937,375.268C85.2261,376.969 99.4372,378.978 111.5,380.683"/>
</g>
<!-- 381 -->
<g id="node14" class="node"><title>381</title>
<ellipse fill="none" stroke="black" cx="-45.2687" cy="377.885" rx="27" ry="18"/>
<text text-anchor="middle" x="-45.2687" y="382.085" font-family="Times,serif" font-size="14.00">381</text>
</g>
<!-- 113&#45;&#45;381 -->
<g id="edge11" class="edge"><title>113&#45;&#45;381</title>
<path fill="none" stroke="black" d="M19.6259,373.4C7.64712,374.228 -6.40067,375.199 -18.357,376.025"/>
</g>
<!-- 160 -->
<g id="node15" class="node"><title>160</title>
<ellipse fill="none" stroke="black" cx="-71.6461" cy="-168.596" rx="27" ry="18"/>
<text text-anchor="middle" x="-71.6461" y="-164.396" font-family="Times,serif" font-size="14.00">160</text>
</g>
<!-- 428 -->
<g id="node16" class="node"><title>428</title>
<ellipse fill="none" stroke="black" cx="-27.7508" cy="-226.015" rx="27" ry="18"/>
<text text-anchor="middle" x="-27.7508" y="-221.815" font-family="Times,serif" font-size="14.00">428</text>
</g>
<!-- 160&#45;&#45;428 -->
<g id="edge12" class="edge"><title>160&#45;&#45;428</title>
<path fill="none" stroke="black" d="M-59.1849,-184.896C-53.2031,-192.721 -46.0572,-202.068 -40.0913,-209.872"/>
</g>
<!-- 248 -->
<g id="node17" class="node"><title>248</title>
<ellipse fill="none" stroke="black" cx="-95.6031" cy="-100.389" rx="27" ry="18"/>
<text text-anchor="middle" x="-95.6031" y="-96.1894" font-family="Times,serif" font-size="14.00">248</text>
</g>
<!-- 160&#45;&#45;248 -->
<g id="edge13" class="edge"><title>160&#45;&#45;248</title>
<path fill="none" stroke="black" d="M-77.8156,-151.031C-81.3647,-140.926 -85.8116,-128.266 -89.3712,-118.132"/>
</g>
<!-- 129 -->
<g id="node18" class="node"><title>129</title>
<ellipse fill="none" stroke="black" cx="92.3539" cy="77.4043" rx="27" ry="18"/>
<text text-anchor="middle" x="92.3539" y="81.6043" font-family="Times,serif" font-size="14.00">129</text>
</g>
<!-- 217 -->
<g id="node19" class="node"><title>217</title>
<ellipse fill="none" stroke="black" cx="136.249" cy="19.9851" rx="27" ry="18"/>
<text text-anchor="middle" x="136.249" y="24.1851" font-family="Times,serif" font-size="14.00">217</text>
</g>
<!-- 129&#45;&#45;217 -->
<g id="edge14" class="edge"><title>129&#45;&#45;217</title>
<path fill="none" stroke="black" d="M104.815,61.1038C110.797,53.2791 117.943,43.9316 123.909,36.1276"/>
</g>
<!-- 397 -->
<g id="node20" class="node"><title>397</title>
<ellipse fill="none" stroke="black" cx="68.3969" cy="145.611" rx="27" ry="18"/>
<text text-anchor="middle" x="68.3969" y="149.811" font-family="Times,serif" font-size="14.00">397</text>
</g>
<!-- 129&#45;&#45;397 -->
<g id="edge15" class="edge"><title>129&#45;&#45;397</title>
<path fill="none" stroke="black" d="M86.1844,94.9691C82.6353,105.074 78.1884,117.734 74.6288,127.868"/>
</g>
<!-- 33 -->
<g id="node21" class="node"><title>33</title>
<ellipse fill="none" stroke="black" cx="319.73" cy="170.355" rx="27" ry="18"/>
<text text-anchor="middle" x="319.73" y="174.555" font-family="Times,serif" font-size="14.00">33</text>
</g>
<!-- 297 -->
<g id="node22" class="node"><title>297</title>
<ellipse fill="none" stroke="black" cx="331.138" cy="79.5352" rx="27" ry="18"/>
<text text-anchor="middle" x="331.138" y="83.7352" font-family="Times,serif" font-size="14.00">297</text>
</g>
<!-- 33&#45;&#45;297 -->
<g id="edge16" class="edge"><title>33&#45;&#45;297</title>
<path fill="none" stroke="black" d="M321.984,152.412C323.971,136.594 326.853,113.652 328.85,97.7519"/>
</g>
<!-- 301 -->
<g id="node23" class="node"><title>301</title>
<ellipse fill="none" stroke="black" cx="256.853" cy="250.563" rx="27" ry="18"/>
<text text-anchor="middle" x="256.853" y="254.763" font-family="Times,serif" font-size="14.00">301</text>
</g>
<!-- 33&#45;&#45;301 -->
<g id="edge17" class="edge"><title>33&#45;&#45;301</title>
<path fill="none" stroke="black" d="M307.006,186.587C296.097,200.502 280.462,220.447 269.558,234.356"/>
</g>
<!-- 121 -->
<g id="node24" class="node"><title>121</title>
<ellipse fill="none" stroke="black" cx="282.391" cy="173.587" rx="27" ry="18"/>
<text text-anchor="middle" x="282.391" y="177.787" font-family="Times,serif" font-size="14.00">121</text>
</g>
<!-- 33&#45;&#45;121 -->
<g id="edge18" class="edge"><title>33&#45;&#45;121</title>
<path fill="none" stroke="black" d="M292.594,172.704C292.503,172.712 292.413,172.719 292.323,172.727"/>
</g>
<!-- 3 -->
<g id="node25" class="node"><title>3</title>
<ellipse fill="none" stroke="black" cx="379.354" cy="-414.596" rx="27" ry="18"/>
<text text-anchor="middle" x="379.354" y="-410.396" font-family="Times,serif" font-size="14.00">3</text>
</g>
<!-- 271 -->
<g id="node26" class="node"><title>271</title>
<ellipse fill="none" stroke="black" cx="423.249" cy="-472.015" rx="27" ry="18"/>
<text text-anchor="middle" x="423.249" y="-467.815" font-family="Times,serif" font-size="14.00">271</text>
</g>
<!-- 3&#45;&#45;271 -->
<g id="edge19" class="edge"><title>3&#45;&#45;271</title>
<path fill="none" stroke="black" d="M391.815,-430.896C397.797,-438.721 404.943,-448.068 410.909,-455.872"/>
</g>
<!-- 91 -->
<g id="node27" class="node"><title>91</title>
<ellipse fill="none" stroke="black" cx="355.397" cy="-346.389" rx="27" ry="18"/>
<text text-anchor="middle" x="355.397" y="-342.189" font-family="Times,serif" font-size="14.00">91</text>
</g>
<!-- 3&#45;&#45;91 -->
<g id="edge20" class="edge"><title>3&#45;&#45;91</title>
<path fill="none" stroke="black" d="M373.184,-397.031C369.635,-386.926 365.188,-374.266 361.629,-364.132"/>
</g>
<!-- 114 -->
<g id="node28" class="node"><title>114</title>
<ellipse fill="none" stroke="black" cx="-178.382" cy="20.0665" rx="27" ry="18"/>
<text text-anchor="middle" x="-178.382" y="24.2665" font-family="Times,serif" font-size="14.00">114</text>
</g>
<!-- 382 -->
<g id="node29" class="node"><title>382</title>
<ellipse fill="none" stroke="black" cx="-134.361" cy="77.3895" rx="27" ry="18"/>
<text text-anchor="middle" x="-134.361" y="81.5895" font-family="Times,serif" font-size="14.00">382</text>
</g>
<!-- 114&#45;&#45;382 -->
<g id="edge21" class="edge"><title>114&#45;&#45;382</title>
<path fill="none" stroke="black" d="M-165.885,36.3396C-159.886,44.1512 -152.72,53.4831 -146.737,61.2741"/>
</g>
<!-- 161 -->
<g id="node30" class="node"><title>161</title>
<ellipse fill="none" stroke="black" cx="390.553" cy="379.183" rx="27" ry="18"/>
<text text-anchor="middle" x="390.553" y="383.383" font-family="Times,serif" font-size="14.00">161</text>
</g>
<!-- 249 -->
<g id="node31" class="node"><title>249</title>
<ellipse fill="none" stroke="black" cx="465.608" cy="416.918" rx="27" ry="18"/>
<text text-anchor="middle" x="465.608" y="421.118" font-family="Times,serif" font-size="14.00">249</text>
</g>
<!-- 161&#45;&#45;249 -->
<g id="edge22" class="edge"><title>161&#45;&#45;249</title>
<path fill="none" stroke="black" d="M412.262,390.098C422.22,395.104 433.996,401.025 443.948,406.028"/>
</g>
<!-- 429 -->
<g id="node32" class="node"><title>429</title>
<ellipse fill="none" stroke="black" cx="305.983" cy="348.763" rx="27" ry="18"/>
<text text-anchor="middle" x="305.983" y="352.963" font-family="Times,serif" font-size="14.00">429</text>
</g>
<!-- 161&#45;&#45;429 -->
<g id="edge23" class="edge"><title>161&#45;&#45;429</title>
<path fill="none" stroke="black" d="M366.545,370.547C355.021,366.402 341.253,361.45 329.759,357.315"/>
</g>
<!-- 34 -->
<g id="node33" class="node"><title>34</title>
<ellipse fill="none" stroke="black" cx="461.354" cy="200.404" rx="27" ry="18"/>
<text text-anchor="middle" x="461.354" y="204.604" font-family="Times,serif" font-size="14.00">34</text>
</g>
<!-- 122 -->
<g id="node34" class="node"><title>122</title>
<ellipse fill="none" stroke="black" cx="505.249" cy="142.985" rx="27" ry="18"/>
<text text-anchor="middle" x="505.249" y="147.185" font-family="Times,serif" font-size="14.00">122</text>
</g>
<!-- 34&#45;&#45;122 -->
<g id="edge24" class="edge"><title>34&#45;&#45;122</title>
<path fill="none" stroke="black" d="M473.815,184.104C479.797,176.279 486.943,166.932 492.909,159.128"/>
</g>
<!-- 302 -->
<g id="node35" class="node"><title>302</title>
<ellipse fill="none" stroke="black" cx="437.397" cy="268.611" rx="27" ry="18"/>
<text text-anchor="middle" x="437.397" y="272.811" font-family="Times,serif" font-size="14.00">302</text>
</g>
<!-- 34&#45;&#45;302 -->
<g id="edge25" class="edge"><title>34&#45;&#45;302</title>
<path fill="none" stroke="black" d="M455.184,217.969C451.635,228.074 447.188,240.734 443.629,250.868"/>
</g>
<!-- 82 -->
<g id="node36" class="node"><title>82</title>
<ellipse fill="none" stroke="black" cx="-348.746" cy="-301.52" rx="27" ry="18"/>
<text text-anchor="middle" x="-348.746" y="-297.32" font-family="Times,serif" font-size="14.00">82</text>
</g>
<!-- 82&#45;&#45;222 -->
<g id="edge26" class="edge"><title>82&#45;&#45;222</title>
<path fill="none" stroke="black" d="M-322.354,-296.916C-312.992,-295.283 -302.461,-293.446 -293.103,-291.813"/>
</g>
<!-- 350 -->
<g id="node37" class="node"><title>350</title>
<ellipse fill="none" stroke="black" cx="-432.965" cy="-335.125" rx="27" ry="18"/>
<text text-anchor="middle" x="-432.965" y="-330.925" font-family="Times,serif" font-size="14.00">350</text>
</g>
<!-- 82&#45;&#45;350 -->
<g id="edge27" class="edge"><title>82&#45;&#45;350</title>
<path fill="none" stroke="black" d="M-372.206,-310.881C-383.887,-315.542 -397.967,-321.16 -409.631,-325.814"/>
</g>
<!-- 130 -->
<g id="node38" class="node"><title>130</title>
<ellipse fill="none" stroke="black" cx="-0.853748" cy="-332.614" rx="27" ry="18"/>
<text text-anchor="middle" x="-0.853748" y="-328.414" font-family="Times,serif" font-size="14.00">130</text>
</g>
<!-- 218 -->
<g id="node39" class="node"><title>218</title>
<ellipse fill="none" stroke="black" cx="21.5394" cy="-413.169" rx="27" ry="18"/>
<text text-anchor="middle" x="21.5394" y="-408.969" font-family="Times,serif" font-size="14.00">218</text>
</g>
<!-- 130&#45;&#45;218 -->
<g id="edge28" class="edge"><title>130&#45;&#45;218</title>
<path fill="none" stroke="black" d="M4.11602,-350.492C7.82696,-363.841 12.876,-382.004 16.5836,-395.341"/>
</g>
<!-- 398 -->
<g id="node40" class="node"><title>398</title>
<ellipse fill="none" stroke="black" cx="-92.6726" cy="-325.135" rx="27" ry="18"/>
<text text-anchor="middle" x="-92.6726" y="-320.935" font-family="Times,serif" font-size="14.00">398</text>
</g>
<!-- 130&#45;&#45;398 -->
<g id="edge29" class="edge"><title>130&#45;&#45;398</title>
<path fill="none" stroke="black" d="M-27.9058,-330.411C-39.861,-329.437 -53.8811,-328.295 -65.8139,-327.323"/>
</g>
<!-- 142 -->
<g id="node41" class="node"><title>142</title>
<ellipse fill="none" stroke="black" cx="87.3296" cy="-310.279" rx="27" ry="18"/>
<text text-anchor="middle" x="87.3296" y="-306.079" font-family="Times,serif" font-size="14.00">142</text>
</g>
<!-- 130&#45;&#45;142 -->
<g id="edge30" class="edge"><title>130&#45;&#45;142</title>
<path fill="none" stroke="black" d="M24.6525,-326.154C36.3519,-323.191 50.1882,-319.686 61.8806,-316.725"/>
</g>
<!-- 80 -->
<g id="node42" class="node"><title>80</title>
<ellipse fill="none" stroke="black" cx="477.618" cy="-143.934" rx="27" ry="18"/>
<text text-anchor="middle" x="477.618" y="-139.734" font-family="Times,serif" font-size="14.00">80</text>
</g>
<!-- 348 -->
<g id="node43" class="node"><title>348</title>
<ellipse fill="none" stroke="black" cx="521.639" cy="-86.6105" rx="27" ry="18"/>
<text text-anchor="middle" x="521.639" y="-82.4105" font-family="Times,serif" font-size="14.00">348</text>
</g>
<!-- 80&#45;&#45;348 -->
<g id="edge31" class="edge"><title>80&#45;&#45;348</title>
<path fill="none" stroke="black" d="M490.115,-127.66C496.114,-119.849 503.28,-110.517 509.263,-102.726"/>
</g>
<!-- 64 -->
<g id="node44" class="node"><title>64</title>
<ellipse fill="none" stroke="black" cx="291.35" cy="-167.039" rx="27" ry="18"/>
<text text-anchor="middle" x="291.35" y="-162.839" font-family="Times,serif" font-size="14.00">64</text>
</g>
<!-- 216 -->
<g id="node45" class="node"><title>216</title>
<ellipse fill="none" stroke="black" cx="247.79" cy="-243.841" rx="27" ry="18"/>
<text text-anchor="middle" x="247.79" y="-239.641" font-family="Times,serif" font-size="14.00">216</text>
</g>
<!-- 64&#45;&#45;216 -->
<g id="edge32" class="edge"><title>64&#45;&#45;216</title>
<path fill="none" stroke="black" d="M281.683,-184.084C274.464,-196.812 264.643,-214.128 257.431,-226.844"/>
</g>
<!-- 88 -->
<g id="node46" class="node"><title>88</title>
<ellipse fill="none" stroke="black" cx="367.317" cy="-213.316" rx="27" ry="18"/>
<text text-anchor="middle" x="367.317" y="-209.116" font-family="Times,serif" font-size="14.00">88</text>
</g>
<!-- 64&#45;&#45;88 -->
<g id="edge33" class="edge"><title>64&#45;&#45;88</title>
<path fill="none" stroke="black" d="M311.309,-179.198C322.387,-185.946 336.128,-194.317 347.227,-201.078"/>
</g>
<!-- 89 -->
<g id="node47" class="node"><title>89</title>
<ellipse fill="none" stroke="black" cx="279.24" cy="-84.456" rx="27" ry="18"/>
<text text-anchor="middle" x="279.24" y="-80.256" font-family="Times,serif" font-size="14.00">89</text>
</g>
<!-- 64&#45;&#45;89 -->
<g id="edge34" class="edge"><title>64&#45;&#45;89</title>
<path fill="none" stroke="black" d="M288.722,-149.12C286.705,-135.363 283.931,-116.445 281.904,-102.626"/>
</g>
<!-- 90 -->
<g id="node48" class="node"><title>90</title>
<ellipse fill="none" stroke="black" cx="211.551" cy="-193.516" rx="27" ry="18"/>
<text text-anchor="middle" x="211.551" y="-189.316" font-family="Times,serif" font-size="14.00">90</text>
</g>
<!-- 64&#45;&#45;90 -->
<g id="edge35" class="edge"><title>64&#45;&#45;90</title>
<path fill="none" stroke="black" d="M266.974,-175.127C257.074,-178.412 245.663,-182.198 235.778,-185.478"/>
</g>
<!-- 120 -->
<g id="node49" class="node"><title>120</title>
<ellipse fill="none" stroke="black" cx="340.503" cy="-93.1866" rx="27" ry="18"/>
<text text-anchor="middle" x="340.503" y="-88.9866" font-family="Times,serif" font-size="14.00">120</text>
</g>
<!-- 64&#45;&#45;120 -->
<g id="edge36" class="edge"><title>64&#45;&#45;120</title>
<path fill="none" stroke="black" d="M302.503,-150.281C310.548,-138.195 321.359,-121.95 329.393,-109.879"/>
</g>
<!-- 421 -->
<g id="node50" class="node"><title>421</title>
<ellipse fill="none" stroke="black" cx="-255.773" cy="236.962" rx="27" ry="18"/>
<text text-anchor="middle" x="-255.773" y="241.162" font-family="Times,serif" font-size="14.00">421</text>
</g>
<!-- 421&#45;&#45;447 -->
<g id="edge38" class="edge"><title>421&#45;&#45;447</title>
<path fill="none" stroke="black" d="M-280.405,229.215C-289.944,226.215 -300.841,222.788 -310.378,219.789"/>
</g>
<!-- 509 -->
<g id="node51" class="node"><title>509</title>
<ellipse fill="none" stroke="black" cx="-185.393" cy="290.933" rx="27" ry="18"/>
<text text-anchor="middle" x="-185.393" y="295.133" font-family="Times,serif" font-size="14.00">509</text>
</g>
<!-- 421&#45;&#45;509 -->
<g id="edge37" class="edge"><title>421&#45;&#45;509</title>
<path fill="none" stroke="black" d="M-238.013,250.581C-227.426,258.7 -214.021,268.979 -203.392,277.131"/>
</g>
<!-- 209 -->
<g id="node52" class="node"><title>209</title>
<ellipse fill="none" stroke="black" cx="190.618" cy="-594.934" rx="27" ry="18"/>
<text text-anchor="middle" x="190.618" y="-590.734" font-family="Times,serif" font-size="14.00">209</text>
</g>
<!-- 477 -->
<g id="node53" class="node"><title>477</title>
<ellipse fill="none" stroke="black" cx="234.639" cy="-537.61" rx="27" ry="18"/>
<text text-anchor="middle" x="234.639" y="-533.41" font-family="Times,serif" font-size="14.00">477</text>
</g>
<!-- 209&#45;&#45;477 -->
<g id="edge39" class="edge"><title>209&#45;&#45;477</title>
<path fill="none" stroke="black" d="M203.115,-578.66C209.114,-570.849 216.28,-561.517 222.263,-553.726"/>
</g>
<!-- 131 -->
<g id="node54" class="node"><title>131</title>
<ellipse fill="none" stroke="black" cx="-148.201" cy="-506.715" rx="27" ry="18"/>
<text text-anchor="middle" x="-148.201" y="-502.515" font-family="Times,serif" font-size="14.00">131</text>
</g>
<!-- 399 -->
<g id="node55" class="node"><title>399</title>
<ellipse fill="none" stroke="black" cx="-158.204" cy="-416.709" rx="27" ry="18"/>
<text text-anchor="middle" x="-158.204" y="-412.509" font-family="Times,serif" font-size="14.00">399</text>
</g>
<!-- 131&#45;&#45;399 -->
<g id="edge40" class="edge"><title>131&#45;&#45;399</title>
<path fill="none" stroke="black" d="M-150.226,-488.501C-151.961,-472.885 -154.448,-450.504 -156.183,-434.896"/>
</g>
<!-- 219 -->
<g id="node56" class="node"><title>219</title>
<ellipse fill="none" stroke="black" cx="-147.266" cy="-591.454" rx="27" ry="18"/>
<text text-anchor="middle" x="-147.266" y="-587.254" font-family="Times,serif" font-size="14.00">219</text>
</g>
<!-- 131&#45;&#45;219 -->
<g id="edge41" class="edge"><title>131&#45;&#45;219</title>
<path fill="none" stroke="black" d="M-147.998,-525.102C-147.841,-539.413 -147.623,-559.167 -147.466,-573.394"/>
</g>
<!-- 81 -->
<g id="node57" class="node"><title>81</title>
<ellipse fill="none" stroke="black" cx="111.905" cy="463.237" rx="27" ry="18"/>
<text text-anchor="middle" x="111.905" y="467.437" font-family="Times,serif" font-size="14.00">81</text>
</g>
<!-- 81&#45;&#45;377 -->
<g id="edge42" class="edge"><title>81&#45;&#45;377</title>
<path fill="none" stroke="black" d="M117.876,445.361C122.183,432.469 127.971,415.141 132.272,402.265"/>
</g>
<!-- 349 -->
<g id="node58" class="node"><title>349</title>
<ellipse fill="none" stroke="black" cx="101.079" cy="552.977" rx="27" ry="18"/>
<text text-anchor="middle" x="101.079" y="557.177" font-family="Times,serif" font-size="14.00">349</text>
</g>
<!-- 81&#45;&#45;349 -->
<g id="edge43" class="edge"><title>81&#45;&#45;349</title>
<path fill="none" stroke="black" d="M109.714,481.397C107.836,496.967 105.144,519.282 103.267,534.844"/>
</g>
<!-- 389 -->
<g id="node59" class="node"><title>389</title>
<ellipse fill="none" stroke="black" cx="258.743" cy="-469.456" rx="27" ry="18"/>
<text text-anchor="middle" x="258.743" y="-465.256" font-family="Times,serif" font-size="14.00">389</text>
</g>
<!-- 389&#45;&#45;477 -->
<g id="edge44" class="edge"><title>389&#45;&#45;477</title>
<path fill="none" stroke="black" d="M252.536,-487.007C248.965,-497.104 244.49,-509.755 240.909,-519.882"/>
</g>
<!-- 241 -->
<g id="node60" class="node"><title>241</title>
<ellipse fill="none" stroke="black" cx="-142.398" cy="250.94" rx="27" ry="18"/>
<text text-anchor="middle" x="-142.398" y="255.14" font-family="Times,serif" font-size="14.00">241</text>
</g>
<!-- 241&#45;&#45;509 -->
<g id="edge45" class="edge"><title>241&#45;&#45;509</title>
<path fill="none" stroke="black" d="M-158.407,265.832C-162.036,269.208 -165.889,272.791 -169.513,276.162"/>
</g>
<!-- 420 -->
<g id="node61" class="node"><title>420</title>
<ellipse fill="none" stroke="black" cx="518.618" cy="-594.934" rx="27" ry="18"/>
<text text-anchor="middle" x="518.618" y="-590.734" font-family="Times,serif" font-size="14.00">420</text>
</g>
<!-- 508 -->
<g id="node62" class="node"><title>508</title>
<ellipse fill="none" stroke="black" cx="562.639" cy="-537.61" rx="27" ry="18"/>
<text text-anchor="middle" x="562.639" y="-533.41" font-family="Times,serif" font-size="14.00">508</text>
</g>
<!-- 420&#45;&#45;508 -->
<g id="edge46" class="edge"><title>420&#45;&#45;508</title>
<path fill="none" stroke="black" d="M531.115,-578.66C537.114,-570.849 544.28,-561.517 550.263,-553.726"/>
</g>
<!-- 1 -->
<g id="node63" class="node"><title>1</title>
<ellipse fill="none" stroke="black" cx="297.66" cy="2.96509" rx="27" ry="18"/>
<text text-anchor="middle" x="297.66" y="7.16509" font-family="Times,serif" font-size="14.00">1</text>
</g>
<!-- 1&#45;&#45;297 -->
<g id="edge47" class="edge"><title>1&#45;&#45;297</title>
<path fill="none" stroke="black" d="M305.257,20.34C310.735,32.8712 318.099,49.7137 323.571,62.229"/>
</g>
<!-- 1&#45;&#45;89 -->
<g id="edge48" class="edge"><title>1&#45;&#45;89</title>
<path fill="none" stroke="black" d="M293.843,-15.1486C290.682,-30.1522 286.212,-51.3683 283.052,-66.3655"/>
</g>
<!-- 269 -->
<g id="node64" class="node"><title>269</title>
<ellipse fill="none" stroke="black" cx="243.948" cy="22.9881" rx="27" ry="18"/>
<text text-anchor="middle" x="243.948" y="27.1881" font-family="Times,serif" font-size="14.00">269</text>
</g>
<!-- 1&#45;&#45;269 -->
<g id="edge49" class="edge"><title>1&#45;&#45;269</title>
<path fill="none" stroke="black" d="M273.945,11.8058C271.921,12.5601 269.874,13.3234 267.849,14.0782"/>
</g>
<!-- 391 -->
<g id="node65" class="node"><title>391</title>
<ellipse fill="none" stroke="black" cx="-323.333" cy="126.083" rx="27" ry="18"/>
<text text-anchor="middle" x="-323.333" y="130.283" font-family="Times,serif" font-size="14.00">391</text>
</g>
<!-- 391&#45;&#45;479 -->
<g id="edge50" class="edge"><title>391&#45;&#45;479</title>
<path fill="none" stroke="black" d="M-328.557,108.238C-332.884,93.4576 -339.002,72.5569 -343.327,57.7826"/>
</g>
<!-- 391&#45;&#45;447 -->
<g id="edge51" class="edge"><title>391&#45;&#45;447</title>
<path fill="none" stroke="black" d="M-325.806,144.313C-327.785,158.902 -330.547,179.261 -332.525,193.842"/>
</g>
<!-- 261 -->
<g id="node66" class="node"><title>261</title>
<ellipse fill="none" stroke="black" cx="98.0301" cy="637.513" rx="27" ry="18"/>
<text text-anchor="middle" x="98.0301" y="641.713" font-family="Times,serif" font-size="14.00">261</text>
</g>
<!-- 261&#45;&#45;349 -->
<g id="edge52" class="edge"><title>261&#45;&#45;349</title>
<path fill="none" stroke="black" d="M98.6917,619.17C99.2067,604.893 99.9176,585.187 100.43,570.994"/>
</g>
<!-- 134 -->
<g id="node67" class="node"><title>134</title>
<ellipse fill="none" stroke="black" cx="-183.769" cy="-337.52" rx="27" ry="18"/>
<text text-anchor="middle" x="-183.769" y="-333.32" font-family="Times,serif" font-size="14.00">134</text>
</g>
<!-- 134&#45;&#45;222 -->
<g id="edge54" class="edge"><title>134&#45;&#45;222</title>
<path fill="none" stroke="black" d="M-203.859,-325.343C-216.812,-317.493 -233.596,-307.32 -246.568,-299.457"/>
</g>
<!-- 134&#45;&#45;398 -->
<g id="edge55" class="edge"><title>134&#45;&#45;398</title>
<path fill="none" stroke="black" d="M-156.93,-333.871C-145.069,-332.259 -131.159,-330.367 -119.32,-328.758"/>
</g>
<!-- 134&#45;&#45;399 -->
<g id="edge56" class="edge"><title>134&#45;&#45;399</title>
<path fill="none" stroke="black" d="M-177.968,-355.489C-173.755,-368.54 -168.082,-386.113 -163.894,-399.084"/>
</g>
<!-- 430 -->
<g id="node68" class="node"><title>430</title>
<ellipse fill="none" stroke="black" cx="-215.312" cy="-412.792" rx="27" ry="18"/>
<text text-anchor="middle" x="-215.312" y="-408.592" font-family="Times,serif" font-size="14.00">430</text>
</g>
<!-- 134&#45;&#45;430 -->
<g id="edge53" class="edge"><title>134&#45;&#45;430</title>
<path fill="none" stroke="black" d="M-191.085,-354.978C-196.181,-367.139 -202.949,-383.289 -208.036,-395.428"/>
</g>
<!-- 162 -->
<g id="node69" class="node"><title>162</title>
<ellipse fill="none" stroke="black" cx="-240.556" cy="-499.315" rx="27" ry="18"/>
<text text-anchor="middle" x="-240.556" y="-495.115" font-family="Times,serif" font-size="14.00">162</text>
</g>
<!-- 162&#45;&#45;430 -->
<g id="edge57" class="edge"><title>162&#45;&#45;430</title>
<path fill="none" stroke="black" d="M-235.325,-481.387C-230.993,-466.538 -224.866,-445.54 -220.536,-430.696"/>
</g>
<!-- 250 -->
<g id="node70" class="node"><title>250</title>
<ellipse fill="none" stroke="black" cx="-264.662" cy="-580.235" rx="27" ry="18"/>
<text text-anchor="middle" x="-264.662" y="-576.035" font-family="Times,serif" font-size="14.00">250</text>
</g>
<!-- 162&#45;&#45;250 -->
<g id="edge58" class="edge"><title>162&#45;&#45;250</title>
<path fill="none" stroke="black" d="M-245.906,-517.274C-249.9,-530.684 -255.336,-548.929 -259.327,-562.326"/>
</g>
<!-- 112 -->
<g id="node71" class="node"><title>112</title>
<ellipse fill="none" stroke="black" cx="169.31" cy="459.759" rx="27" ry="18"/>
<text text-anchor="middle" x="169.31" y="463.959" font-family="Times,serif" font-size="14.00">112</text>
</g>
<!-- 112&#45;&#45;377 -->
<g id="edge60" class="edge"><title>112&#45;&#45;377</title>
<path fill="none" stroke="black" d="M162.099,442.295C157.077,430.13 150.406,413.974 145.392,401.83"/>
</g>
<!-- 380 -->
<g id="node72" class="node"><title>380</title>
<ellipse fill="none" stroke="black" cx="194.092" cy="546.138" rx="27" ry="18"/>
<text text-anchor="middle" x="194.092" y="550.338" font-family="Times,serif" font-size="14.00">380</text>
</g>
<!-- 112&#45;&#45;380 -->
<g id="edge59" class="edge"><title>112&#45;&#45;380</title>
<path fill="none" stroke="black" d="M174.445,477.657C178.698,492.482 184.713,513.445 188.964,528.263"/>
</g>
<!-- 294 -->
<g id="node73" class="node"><title>294</title>
<ellipse fill="none" stroke="black" cx="-110.257" cy="145.544" rx="27" ry="18"/>
<text text-anchor="middle" x="-110.257" y="149.744" font-family="Times,serif" font-size="14.00">294</text>
</g>
<!-- 294&#45;&#45;382 -->
<g id="edge61" class="edge"><title>294&#45;&#45;382</title>
<path fill="none" stroke="black" d="M-116.464,127.993C-120.035,117.896 -124.51,105.245 -128.091,95.1184"/>
</g>
<!-- 423 -->
<g id="node74" class="node"><title>423</title>
<ellipse fill="none" stroke="black" cx="-411.384" cy="260.296" rx="27" ry="18"/>
<text text-anchor="middle" x="-411.384" y="264.496" font-family="Times,serif" font-size="14.00">423</text>
</g>
<!-- 423&#45;&#45;447 -->
<g id="edge63" class="edge"><title>423&#45;&#45;447</title>
<path fill="none" stroke="black" d="M-391.712,247.87C-380.306,240.667 -365.994,231.626 -354.6,224.43"/>
</g>
<!-- 511 -->
<g id="node75" class="node"><title>511</title>
<ellipse fill="none" stroke="black" cx="-481.499" cy="305.498" rx="27" ry="18"/>
<text text-anchor="middle" x="-481.499" y="309.698" font-family="Times,serif" font-size="14.00">511</text>
</g>
<!-- 423&#45;&#45;511 -->
<g id="edge62" class="edge"><title>423&#45;&#45;511</title>
<path fill="none" stroke="black" d="M-430.915,272.887C-440.64,279.157 -452.362,286.714 -462.073,292.974"/>
</g>
<!-- 208 -->
<g id="node76" class="node"><title>208</title>
<ellipse fill="none" stroke="black" cx="-318.878" cy="-350.178" rx="27" ry="18"/>
<text text-anchor="middle" x="-318.878" y="-345.978" font-family="Times,serif" font-size="14.00">208</text>
</g>
<!-- 208&#45;&#45;222 -->
<g id="edge64" class="edge"><title>208&#45;&#45;222</title>
<path fill="none" stroke="black" d="M-305.727,-334.291C-297.887,-324.819 -287.961,-312.828 -280.089,-303.319"/>
</g>
<!-- 476 -->
<g id="node77" class="node"><title>476</title>
<ellipse fill="none" stroke="black" cx="-383.65" cy="-412.985" rx="27" ry="18"/>
<text text-anchor="middle" x="-383.65" y="-408.785" font-family="Times,serif" font-size="14.00">476</text>
</g>
<!-- 208&#45;&#45;476 -->
<g id="edge65" class="edge"><title>208&#45;&#45;476</title>
<path fill="none" stroke="black" d="M-334.228,-365.063C-344.404,-374.929 -357.716,-387.838 -367.96,-397.771"/>
</g>
<!-- 115 -->
<g id="node78" class="node"><title>115</title>
<ellipse fill="none" stroke="black" cx="-258.859" cy="427.178" rx="27" ry="18"/>
<text text-anchor="middle" x="-258.859" y="431.378" font-family="Times,serif" font-size="14.00">115</text>
</g>
<!-- 383 -->
<g id="node79" class="node"><title>383</title>
<ellipse fill="none" stroke="black" cx="-223.437" cy="353.307" rx="27" ry="18"/>
<text text-anchor="middle" x="-223.437" y="357.507" font-family="Times,serif" font-size="14.00">383</text>
</g>
<!-- 115&#45;&#45;383 -->
<g id="edge66" class="edge"><title>115&#45;&#45;383</title>
<path fill="none" stroke="black" d="M-250.465,409.671C-244.818,397.896 -237.405,382.437 -231.771,370.688"/>
</g>
<!-- 263 -->
<g id="node80" class="node"><title>263</title>
<ellipse fill="none" stroke="black" cx="-14.3818" cy="-635.934" rx="27" ry="18"/>
<text text-anchor="middle" x="-14.3818" y="-631.734" font-family="Times,serif" font-size="14.00">263</text>
</g>
<!-- 351 -->
<g id="node81" class="node"><title>351</title>
<ellipse fill="none" stroke="black" cx="29.6387" cy="-578.61" rx="27" ry="18"/>
<text text-anchor="middle" x="29.6387" y="-574.41" font-family="Times,serif" font-size="14.00">351</text>
</g>
<!-- 263&#45;&#45;351 -->
<g id="edge67" class="edge"><title>263&#45;&#45;351</title>
<path fill="none" stroke="black" d="M-1.88508,-619.66C4.11374,-611.849 11.28,-602.517 17.263,-594.726"/>
</g>
<!-- 260 -->
<g id="node82" class="node"><title>260</title>
<ellipse fill="none" stroke="black" cx="545.743" cy="-18.456" rx="27" ry="18"/>
<text text-anchor="middle" x="545.743" y="-14.256" font-family="Times,serif" font-size="14.00">260</text>
</g>
<!-- 260&#45;&#45;348 -->
<g id="edge68" class="edge"><title>260&#45;&#45;348</title>
<path fill="none" stroke="black" d="M539.536,-36.0075C535.965,-46.1043 531.49,-58.7551 527.909,-68.8816"/>
</g>
<!-- 262 -->
<g id="node83" class="node"><title>262</title>
<ellipse fill="none" stroke="black" cx="-508.5" cy="-373.814" rx="27" ry="18"/>
<text text-anchor="middle" x="-508.5" y="-369.614" font-family="Times,serif" font-size="14.00">262</text>
</g>
<!-- 262&#45;&#45;350 -->
<g id="edge69" class="edge"><title>262&#45;&#45;350</title>
<path fill="none" stroke="black" d="M-487.057,-362.831C-476.851,-357.603 -464.675,-351.367 -454.462,-346.136"/>
</g>
<!-- 2 -->
<g id="node84" class="node"><title>2</title>
<ellipse fill="none" stroke="black" cx="140.848" cy="-247.819" rx="27" ry="18"/>
<text text-anchor="middle" x="140.848" y="-243.619" font-family="Times,serif" font-size="14.00">2</text>
</g>
<!-- 2&#45;&#45;142 -->
<g id="edge72" class="edge"><title>2&#45;&#45;142</title>
<path fill="none" stroke="black" d="M127.343,-263.58C119.292,-272.976 109.099,-284.872 101.016,-294.305"/>
</g>
<!-- 2&#45;&#45;90 -->
<g id="edge71" class="edge"><title>2&#45;&#45;90</title>
<path fill="none" stroke="black" d="M158.689,-234.116C169.325,-225.947 182.791,-215.605 193.469,-207.403"/>
</g>
<!-- 270 -->
<g id="node85" class="node"><title>270</title>
<ellipse fill="none" stroke="black" cx="96.9033" cy="-209.934" rx="27" ry="18"/>
<text text-anchor="middle" x="96.9033" y="-205.734" font-family="Times,serif" font-size="14.00">270</text>
</g>
<!-- 2&#45;&#45;270 -->
<g id="edge70" class="edge"><title>2&#45;&#45;270</title>
<path fill="none" stroke="black" d="M124.234,-233.496C120.734,-230.479 117.041,-227.295 113.54,-224.277"/>
</g>
<!-- 35 -->
<g id="node86" class="node"><title>35</title>
<ellipse fill="none" stroke="black" cx="339.346" cy="459.457" rx="27" ry="18"/>
<text text-anchor="middle" x="339.346" y="463.657" font-family="Times,serif" font-size="14.00">35</text>
</g>
<!-- 303 -->
<g id="node87" class="node"><title>303</title>
<ellipse fill="none" stroke="black" cx="274.589" cy="397.682" rx="27" ry="18"/>
<text text-anchor="middle" x="274.589" y="401.882" font-family="Times,serif" font-size="14.00">303</text>
</g>
<!-- 35&#45;&#45;303 -->
<g id="edge73" class="edge"><title>35&#45;&#45;303</title>
<path fill="none" stroke="black" d="M323.671,444.503C313.489,434.79 300.273,422.183 290.121,412.498"/>
</g>
<!-- 123 -->
<g id="node88" class="node"><title>123</title>
<ellipse fill="none" stroke="black" cx="397.373" cy="520.004" rx="27" ry="18"/>
<text text-anchor="middle" x="397.373" y="524.204" font-family="Times,serif" font-size="14.00">123</text>
</g>
<!-- 35&#45;&#45;123 -->
<g id="edge74" class="edge"><title>35&#45;&#45;123</title>
<path fill="none" stroke="black" d="M353.989,474.735C362.718,483.844 373.769,495.375 382.533,504.52"/>
</g>
<!-- 32 -->
<g id="node89" class="node"><title>32</title>
<ellipse fill="none" stroke="black" cx="368.223" cy="-1.35622" rx="27" ry="18"/>
<text text-anchor="middle" x="368.223" y="2.84378" font-family="Times,serif" font-size="14.00">32</text>
</g>
<!-- 32&#45;&#45;297 -->
<g id="edge75" class="edge"><title>32&#45;&#45;297</title>
<path fill="none" stroke="black" d="M360.176,16.196C353.913,29.8572 345.268,48.714 339.042,62.2951"/>
</g>
<!-- 32&#45;&#45;120 -->
<g id="edge77" class="edge"><title>32&#45;&#45;120</title>
<path fill="none" stroke="black" d="M362.878,-19.062C357.97,-35.3231 350.735,-59.2912 345.831,-75.5351"/>
</g>
<!-- 300 -->
<g id="node90" class="node"><title>300</title>
<ellipse fill="none" stroke="black" cx="449.515" cy="1.68728" rx="27" ry="18"/>
<text text-anchor="middle" x="449.515" y="5.88728" font-family="Times,serif" font-size="14.00">300</text>
</g>
<!-- 32&#45;&#45;300 -->
<g id="edge76" class="edge"><title>32&#45;&#45;300</title>
<path fill="none" stroke="black" d="M395.292,-0.342774C403.976,-0.0176829 413.593,0.342375 422.287,0.667891"/>
</g>
<!-- 293 -->
<g id="node91" class="node"><title>293</title>
<ellipse fill="none" stroke="black" cx="-68.2673" cy="458.285" rx="27" ry="18"/>
<text text-anchor="middle" x="-68.2673" y="462.485" font-family="Times,serif" font-size="14.00">293</text>
</g>
<!-- 293&#45;&#45;381 -->
<g id="edge78" class="edge"><title>293&#45;&#45;381</title>
<path fill="none" stroke="black" d="M-63.1632,440.442C-59.3519,427.118 -54.1664,408.99 -50.3586,395.678"/>
</g>
<!-- 128 -->
<g id="node92" class="node"><title>128</title>
<ellipse fill="none" stroke="black" cx="178.004" cy="-308.949" rx="27" ry="18"/>
<text text-anchor="middle" x="178.004" y="-304.749" font-family="Times,serif" font-size="14.00">128</text>
</g>
<!-- 128&#45;&#45;142 -->
<g id="edge81" class="edge"><title>128&#45;&#45;142</title>
<path fill="none" stroke="black" d="M150.798,-309.348C139.322,-309.517 125.99,-309.712 114.516,-309.88"/>
</g>
<!-- 128&#45;&#45;216 -->
<g id="edge79" class="edge"><title>128&#45;&#45;216</title>
<path fill="none" stroke="black" d="M193.839,-294.175C205.26,-283.52 220.611,-269.199 232.017,-258.557"/>
</g>
<!-- 396 -->
<g id="node93" class="node"><title>396</title>
<ellipse fill="none" stroke="black" cx="215.094" cy="-381.854" rx="27" ry="18"/>
<text text-anchor="middle" x="215.094" y="-377.654" font-family="Times,serif" font-size="14.00">396</text>
</g>
<!-- 128&#45;&#45;396 -->
<g id="edge80" class="edge"><title>128&#45;&#45;396</title>
<path fill="none" stroke="black" d="M186.793,-326.227C192.706,-337.849 200.468,-353.105 206.367,-364.701"/>
</g>
<!-- 289 -->
<g id="node94" class="node"><title>289</title>
<ellipse fill="none" stroke="black" cx="222.63" cy="335.396" rx="27" ry="18"/>
<text text-anchor="middle" x="222.63" y="339.596" font-family="Times,serif" font-size="14.00">289</text>
</g>
<!-- 289&#45;&#45;377 -->
<g id="edge84" class="edge"><title>289&#45;&#45;377</title>
<path fill="none" stroke="black" d="M202.196,347.273C189.023,354.93 171.952,364.853 158.758,372.523"/>
</g>
<!-- 289&#45;&#45;301 -->
<g id="edge82" class="edge"><title>289&#45;&#45;301</title>
<path fill="none" stroke="black" d="M229.721,317.818C235.594,303.259 243.9,282.671 249.771,268.118"/>
</g>
<!-- 289&#45;&#45;429 -->
<g id="edge85" class="edge"><title>289&#45;&#45;429</title>
<path fill="none" stroke="black" d="M249.003,339.625C258.733,341.185 269.755,342.953 279.495,344.515"/>
</g>
<!-- 289&#45;&#45;303 -->
<g id="edge83" class="edge"><title>289&#45;&#45;303</title>
<path fill="none" stroke="black" d="M236.01,351.436C243.828,360.807 253.655,372.587 261.434,381.911"/>
</g>
<!-- 0 -->
<g id="node95" class="node"><title>0</title>
<ellipse fill="none" stroke="black" cx="438.1" cy="-256.011" rx="27" ry="18"/>
<text text-anchor="middle" x="438.1" y="-251.811" font-family="Times,serif" font-size="14.00">0</text>
</g>
<!-- 0&#45;&#45;88 -->
<g id="edge86" class="edge"><title>0&#45;&#45;88</title>
<path fill="none" stroke="black" d="M418.006,-243.891C408.523,-238.171 397.227,-231.357 387.707,-225.615"/>
</g>
<!-- 268 -->
<g id="node96" class="node"><title>268</title>
<ellipse fill="none" stroke="black" cx="505.405" cy="-296.175" rx="27" ry="18"/>
<text text-anchor="middle" x="505.405" y="-291.975" font-family="Times,serif" font-size="14.00">268</text>
</g>
<!-- 0&#45;&#45;268 -->
<g id="edge87" class="edge"><title>0&#45;&#45;268</title>
<path fill="none" stroke="black" d="M458.294,-268.062C466.813,-273.145 476.709,-279.051 485.226,-284.133"/>
</g>
<!-- 83 -->
<g id="node97" class="node"><title>83</title>
<ellipse fill="none" stroke="black" cx="53.7432" cy="-510.456" rx="27" ry="18"/>
<text text-anchor="middle" x="53.7432" y="-506.256" font-family="Times,serif" font-size="14.00">83</text>
</g>
<!-- 83&#45;&#45;351 -->
<g id="edge88" class="edge"><title>83&#45;&#45;351</title>
<path fill="none" stroke="black" d="M47.5357,-528.007C43.9647,-538.104 39.4904,-550.755 35.9089,-560.882"/>
</g>
<!-- 295 -->
<g id="node98" class="node"><title>295</title>
<ellipse fill="none" stroke="black" cx="-292.676" cy="288.729" rx="27" ry="18"/>
<text text-anchor="middle" x="-292.676" y="292.929" font-family="Times,serif" font-size="14.00">295</text>
</g>
<!-- 295&#45;&#45;447 -->
<g id="edge90" class="edge"><title>295&#45;&#45;447</title>
<path fill="none" stroke="black" d="M-302.068,271.71C-309.08,259.003 -318.622,241.713 -325.629,229.017"/>
</g>
<!-- 295&#45;&#45;383 -->
<g id="edge89" class="edge"><title>295&#45;&#45;383</title>
<path fill="none" stroke="black" d="M-276.964,303.382C-265.793,313.802 -250.831,327.756 -239.566,338.263"/>
</g>
<!-- 242 -->
<g id="node99" class="node"><title>242</title>
<ellipse fill="none" stroke="black" cx="-490.128" cy="49.6574" rx="27" ry="18"/>
<text text-anchor="middle" x="-490.128" y="53.8574" font-family="Times,serif" font-size="14.00">242</text>
</g>
<!-- 242&#45;&#45;510 -->
<g id="edge91" class="edge"><title>242&#45;&#45;510</title>
<path fill="none" stroke="black" d="M-463.011,48.9261C-451.134,48.6058 -437.222,48.2306 -425.331,47.9099"/>
</g>
<!-- 390 -->
<g id="node100" class="node"><title>390</title>
<ellipse fill="none" stroke="black" cx="-424.643" cy="-142.321" rx="27" ry="18"/>
<text text-anchor="middle" x="-424.643" y="-138.121" font-family="Times,serif" font-size="14.00">390</text>
</g>
<!-- 390&#45;&#45;478 -->
<g id="edge92" class="edge"><title>390&#45;&#45;478</title>
<path fill="none" stroke="black" d="M-399.288,-136.121C-389.564,-133.743 -378.467,-131.029 -368.717,-128.645"/>
</g>
<!-- 211 -->
<g id="node101" class="node"><title>211</title>
<ellipse fill="none" stroke="black" cx="-448.081" cy="35.6174" rx="27" ry="18"/>
<text text-anchor="middle" x="-448.081" y="39.8174" font-family="Times,serif" font-size="14.00">211</text>
</g>
<!-- 211&#45;&#45;479 -->
<g id="edge93" class="edge"><title>211&#45;&#45;479</title>
<path fill="none" stroke="black" d="M-420.882,36.8043C-406.837,37.4172 -389.75,38.1628 -375.71,38.7755"/>
</g>
<!-- 240 -->
<g id="node102" class="node"><title>240</title>
<ellipse fill="none" stroke="black" cx="586.743" cy="-469.456" rx="27" ry="18"/>
<text text-anchor="middle" x="586.743" y="-465.256" font-family="Times,serif" font-size="14.00">240</text>
</g>
<!-- 240&#45;&#45;508 -->
<g id="edge94" class="edge"><title>240&#45;&#45;508</title>
<path fill="none" stroke="black" d="M580.536,-487.007C576.965,-497.104 572.49,-509.755 568.909,-519.882"/>
</g>
<!-- 388 -->
<g id="node103" class="node"><title>388</title>
<ellipse fill="none" stroke="black" cx="-444.216" cy="-471.929" rx="27" ry="18"/>
<text text-anchor="middle" x="-444.216" y="-467.729" font-family="Times,serif" font-size="14.00">388</text>
</g>
<!-- 388&#45;&#45;476 -->
<g id="edge95" class="edge"><title>388&#45;&#45;476</title>
<path fill="none" stroke="black" d="M-428.932,-457.055C-419.821,-448.188 -408.286,-436.962 -399.139,-428.059"/>
</g>
<!-- 243 -->
<g id="node104" class="node"><title>243</title>
<ellipse fill="none" stroke="black" cx="-547.156" cy="349.139" rx="27" ry="18"/>
<text text-anchor="middle" x="-547.156" y="353.339" font-family="Times,serif" font-size="14.00">243</text>
</g>
<!-- 243&#45;&#45;511 -->
<g id="edge96" class="edge"><title>243&#45;&#45;511</title>
<path fill="none" stroke="black" d="M-527.812,336.281C-519.339,330.649 -509.415,324.053 -500.932,318.415"/>
</g>
<!-- 292 -->
<g id="node105" class="node"><title>292</title>
<ellipse fill="none" stroke="black" cx="217.249" cy="627.109" rx="27" ry="18"/>
<text text-anchor="middle" x="217.249" y="631.309" font-family="Times,serif" font-size="14.00">292</text>
</g>
<!-- 292&#45;&#45;380 -->
<g id="edge97" class="edge"><title>292&#45;&#45;380</title>
<path fill="none" stroke="black" d="M212.11,609.139C208.273,595.721 203.051,577.464 199.217,564.058"/>
</g>
<!-- 369 -->
<g id="node106" class="node"><title>369</title>
<ellipse fill="none" stroke="black" cx="-132.861" cy="354.006" rx="27" ry="18"/>
<text text-anchor="middle" x="-132.861" y="358.206" font-family="Times,serif" font-size="14.00">369</text>
</g>
<!-- 369&#45;&#45;381 -->
<g id="edge100" class="edge"><title>369&#45;&#45;381</title>
<path fill="none" stroke="black" d="M-107.526,360.912C-95.9047,364.08 -82.1611,367.827 -70.5471,370.993"/>
</g>
<!-- 369&#45;&#45;509 -->
<g id="edge98" class="edge"><title>369&#45;&#45;509</title>
<path fill="none" stroke="black" d="M-146.117,338.09C-154.019,328.601 -164.024,316.589 -171.958,307.063"/>
</g>
<!-- 369&#45;&#45;383 -->
<g id="edge99" class="edge"><title>369&#45;&#45;383</title>
<path fill="none" stroke="black" d="M-160.037,353.796C-171.501,353.707 -184.818,353.605 -196.28,353.516"/>
</g>
</g>
</svg>